<?xml version="1.0" standalone="no"?>
<!DOCTYPE svg PUBLIC "-//W3C//DTD SVG 20010904//EN"
 "http://www.w3.org/TR/2001/REC-SVG-20010904/DTD/svg10.dtd">
<svg version="1.0" xmlns="http://www.w3.org/2000/svg"
 width="300.000000pt" height="145.000000pt" viewBox="0 0 300.000000 145.000000"
 preserveAspectRatio="xMidYMid meet">
<metadata>
Created by potrace 1.10, written by Peter Selinger 2001-2011
</metadata>
<g transform="translate(0.000000,145.000000) scale(0.100000,-0.100000)"
fill="#000000" stroke="none">
<path d="M380 968 c-11 -4 -20 -11 -20 -16 0 -11 60 -115 84 -147 15 -19 15
-19 16 7 0 35 -29 108 -42 105 -6 -1 -13 4 -15 11 -9 24 24 12 38 -14 7 -15
69 -80 136 -144 118 -113 263 -220 403 -298 66 -36 232 -102 258 -102 11 0 66
-10 123 -21 115 -24 270 -22 295 3 11 11 -9 13 -114 14 -367 4 -657 141 -994
473 -49 47 -88 89 -88 93 0 5 15 8 33 8 31 0 66 14 57 23 -9 9 -149 13 -170 5z"/>
<path d="M1577 834 c-3 -11 -6 -59 -6 -108 -2 -91 -6 -110 -21 -101 -18 11
-22 -19 -5 -31 15 -11 18 -26 16 -80 -2 -45 1 -64 8 -59 6 3 11 35 11 71 l0
65 38 -3 c35 -3 37 -5 40 -40 2 -21 7 -38 13 -38 5 0 9 45 9 103 0 56 6 126
14 155 7 29 10 55 5 57 -14 9 -20 -13 -33 -113 l-12 -97 -37 -3 c-43 -4 -42
-8 -27 138 4 47 4 89 0 94 -4 4 -10 0 -13 -10z"/>
<path d="M2228 824 c-5 -4 -8 -13 -8 -20 0 -7 -27 -70 -61 -140 -65 -137 -69
-138 -90 -50 -7 27 -28 81 -47 120 -28 57 -36 67 -42 51 -4 -13 6 -47 30 -100
20 -44 43 -102 50 -130 7 -27 16 -53 20 -58 9 -10 163 296 159 317 -2 10 -7
14 -11 10z"/>
<path d="M2335 793 c-35 -9 -46 -24 -39 -56 3 -17 1 -39 -7 -53 -9 -18 -10
-29 -1 -46 6 -13 13 -45 14 -73 l3 -50 103 0 c97 0 103 1 100 20 -3 18 -11 20
-98 20 l-95 0 -3 42 -3 41 58 7 c67 9 93 20 93 40 0 11 -14 13 -70 8 l-70 -6
0 26 c0 30 17 41 75 52 l40 7 -25 14 c-26 14 -41 15 -75 7z"/>
<path d="M2583 789 c-35 -10 -41 -27 -24 -72 5 -13 12 -60 16 -103 3 -43 11
-83 17 -89 7 -7 8 2 4 30 -3 22 -8 77 -12 122 -5 75 -4 82 14 92 43 23 92 8
92 -28 0 -9 -18 -44 -40 -79 l-40 -63 26 -9 c14 -6 28 -10 30 -10 3 0 20 -11
38 -25 60 -46 78 -24 23 29 -18 17 -40 36 -50 41 -16 9 -15 14 10 63 21 43 24
59 17 80 -8 23 -16 27 -49 29 -22 1 -55 -3 -72 -8z"/>
<path d="M1798 733 c-46 -49 -58 -73 -58 -118 0 -71 39 -106 90 -80 68 35 115
171 75 215 -28 31 -66 25 -107 -17z m92 -28 c18 -22 4 -63 -35 -102 -50 -50
-95 -41 -95 20 0 20 11 40 34 63 37 37 75 44 96 19z"/>
<path d="M2066 394 c-9 -26 -16 -63 -16 -83 0 -31 -2 -33 -14 -21 -8 8 -26 39
-42 68 -20 41 -29 50 -35 39 -14 -25 -38 -137 -30 -141 4 -3 13 23 20 56 l12
61 44 -73 43 -73 6 39 c3 21 13 68 21 103 18 77 13 90 -9 25z"/>
<path d="M2537 393 c-13 -12 -7 -24 10 -21 12 2 21 -9 30 -37 l13 -40 -4 43
c-4 36 -1 42 15 42 13 0 19 -7 19 -23 0 -24 29 -72 30 -49 0 17 20 15 20 -3 0
-8 4 -15 9 -15 6 0 3 20 -6 45 -15 45 -30 63 -20 25 8 -32 -13 -23 -24 10 -10
26 -16 30 -48 30 -21 0 -41 -3 -44 -7z"/>
<path d="M1816 365 c-47 -43 -28 -133 23 -105 43 22 68 111 35 124 -24 9 -29
8 -58 -19z m58 -20 c8 -21 -37 -70 -57 -62 -22 8 -22 35 0 59 20 22 49 24 57
3z"/>
<path d="M2275 363 c-5 -13 -9 -14 -12 -5 -3 7 -16 -10 -30 -38 -13 -27 -23
-56 -20 -62 3 -7 12 5 22 26 12 29 19 36 25 25 9 -14 10 -13 23 31 2 8 7 -4
11 -27 4 -24 13 -46 18 -49 7 -5 9 1 5 17 -3 13 -9 41 -12 62 -8 40 -19 47
-30 20z"/>
<path d="M2367 362 c-21 -23 -22 -52 -2 -78 15 -19 15 -19 36 5 40 48 7 119
-34 73z m33 -52 c-6 -11 -15 -18 -21 -15 -13 9 -11 53 4 58 18 6 29 -20 17
-43z"/>
<path d="M2450 350 c-3 -14 -4 -33 -2 -43 5 -24 40 -19 58 9 12 17 12 23 -1
40 -15 18 -15 18 -13 -11 2 -21 -2 -30 -14 -33 -12 -2 -17 5 -20 30 -3 30 -4
31 -8 8z"/>
</g>
</svg>
