<?xml version="1.0" standalone="no"?>
<!DOCTYPE svg PUBLIC "-//W3C//DTD SVG 20010904//EN"
 "http://www.w3.org/TR/2001/REC-SVG-20010904/DTD/svg10.dtd">
<svg version="1.0" xmlns="http://www.w3.org/2000/svg"
 width="300.000000pt" height="145.000000pt" viewBox="0 0 300.000000 145.000000"
 preserveAspectRatio="xMidYMid meet">
<metadata>
Created by potrace 1.10, written by Peter Selinger 2001-2011
</metadata>
<g transform="translate(0.000000,145.000000) scale(0.100000,-0.100000)"
fill="#000000" stroke="none">
<path d="M380 960 c-13 -8 -10 -17 15 -65 17 -30 40 -68 52 -83 l22 -27 1 25
c0 14 -9 43 -20 65 -11 21 -18 40 -16 42 2 2 21 -16 41 -41 52 -64 246 -235
330 -291 105 -70 227 -142 255 -150 14 -4 51 -18 83 -32 132 -55 473 -88 512
-50 15 16 9 17 -108 17 -261 0 -453 59 -679 209 -119 79 -154 106 -302 244
-118 110 -117 103 -33 121 15 4 25 11 22 16 -8 13 -155 13 -175 0z"/>
<path d="M2455 865 c-5 -2 -29 -9 -51 -15 -49 -12 -62 -42 -40 -85 8 -15 17
-62 21 -104 10 -131 17 -171 27 -171 6 0 7 21 3 55 -6 46 -5 55 8 55 26 0 86
59 118 114 49 87 32 157 -39 155 -20 0 -41 -2 -47 -4z m75 -45 c26 -26 26 -31
-15 -104 -36 -64 -57 -88 -87 -99 -14 -5 -18 3 -23 51 -3 31 -8 73 -10 93 -3
26 0 40 13 51 37 33 93 37 122 8z"/>
<path d="M2095 758 c-23 -69 -33 -88 -49 -90 -24 -3 -34 -37 -15 -48 10 -7 8
-24 -10 -79 -16 -52 -20 -75 -12 -88 9 -15 10 -14 11 12 0 17 11 59 23 94 21
61 24 64 67 77 25 8 50 14 56 14 7 0 34 -32 60 -71 44 -64 49 -69 52 -45 2 16
-8 42 -28 72 -25 35 -31 52 -26 75 5 25 3 29 -17 29 -19 0 -29 13 -53 68 l-30
67 -29 -87z m48 -23 c21 -44 22 -40 -9 -60 -19 -12 -29 -14 -39 -5 -11 9 -11
18 2 56 8 24 18 44 22 44 4 0 15 -16 24 -35z"/>
<path d="M1835 789 c-33 -5 -89 -12 -125 -17 -61 -7 -65 -9 -68 -34 -2 -16 -1
-28 2 -28 5 0 78 14 132 25 19 4 22 0 22 -37 1 -54 20 -169 32 -188 16 -26 22
-2 11 47 -5 26 -13 78 -17 115 l-6 67 33 5 c19 3 48 7 64 8 19 2 30 9 30 18 0
8 5 18 10 22 13 10 -42 8 -120 -3z"/>
<path d="M2057 388 c-9 -30 -17 -67 -17 -82 0 -37 -10 -28 -45 43 -16 33 -33
61 -36 61 -8 0 -39 -110 -39 -139 0 -35 20 -14 21 22 1 18 4 43 8 57 6 22 10
19 46 -43 22 -37 43 -67 47 -67 4 0 8 15 8 33 0 18 7 59 15 92 20 76 14 93 -8
23z"/>
<path d="M2558 403 c-24 -3 -38 -9 -38 -18 0 -8 6 -12 14 -9 10 4 16 -6 21
-35 10 -58 29 -53 20 5 -6 44 -5 46 14 41 14 -3 21 0 21 9 0 8 -3 13 -7 12 -5
-1 -25 -3 -45 -5z"/>
<path d="M2656 376 c3 -15 2 -26 -4 -26 -5 0 -12 10 -15 22 -4 12 -9 20 -12
16 -8 -8 18 -88 29 -88 4 0 6 7 3 15 -4 8 -2 17 3 20 5 3 11 -4 15 -15 3 -11
11 -20 16 -20 11 0 11 -4 -5 49 -14 49 -42 73 -30 27z"/>
<path d="M1806 360 c-31 -37 -33 -70 -6 -95 19 -17 20 -16 50 14 26 25 31 37
28 68 -4 51 -35 57 -72 13z m62 -14 c4 -19 -34 -66 -54 -66 -32 0 -22 58 14
79 22 13 36 9 40 -13z"/>
<path d="M2270 375 c0 -18 -16 -20 -23 -2 -3 6 -6 3 -6 -8 -1 -11 -10 -33 -21
-50 -21 -32 -26 -55 -11 -55 5 0 14 15 20 33 9 25 14 29 21 17 10 -15 8 -17
23 30 3 8 8 -4 12 -28 4 -23 12 -45 16 -48 12 -7 11 1 -2 69 -11 52 -29 78
-29 42z"/>
<path d="M2351 361 c-15 -27 -14 -54 4 -77 15 -19 15 -19 36 5 27 33 23 85 -8
89 -14 2 -26 -4 -32 -17z m43 -16 c8 -21 -3 -45 -20 -45 -8 0 -14 10 -14 23 0
36 22 51 34 22z"/>
<path d="M2437 346 c-9 -33 11 -63 37 -53 21 8 32 55 17 70 -10 9 -12 5 -9
-18 2 -21 -2 -30 -14 -33 -12 -2 -17 5 -20 30 l-3 33 -8 -29z"/>
</g>
</svg>
